<svg width="147" height="31" viewBox="0 0 147 31" fill="none" xmlns="http://www.w3.org/2000/svg">
<g clip-path="url(#clip0)">
<path d="M26.72 3.7L31.88 10L18.37 25.27L4.86 10L10 3.7H26.7H26.72ZM28.47 0H8.27L0 10.09L18.37 30.85L36.74 10.09L28.47 0Z" fill="#102B4C"/>
<path d="M58.5103 8.47003C59.3541 9.62926 59.787 11.0369 59.7403 12.47C59.7812 13.9054 59.3412 15.3133 58.4903 16.47C58.0617 17.0231 57.5269 17.485 56.9172 17.8285C56.3076 18.1719 55.6354 18.3901 54.9403 18.47C54.4604 18.5424 53.9755 18.5758 53.4903 18.57H48.5603V24.42H45.7803V6.37003H53.4903C53.9758 6.36717 54.4607 6.40396 54.9403 6.48003C56.3467 6.64475 57.6305 7.36037 58.5103 8.47003ZM56.3503 14.64C56.7298 13.9889 56.9297 13.2487 56.9297 12.495C56.9297 11.7414 56.7298 11.0012 56.3503 10.35C56.1537 10.032 55.8946 9.75717 55.5886 9.54229C55.2826 9.32742 54.9362 9.17695 54.5703 9.10003C54.178 9.02633 53.7793 8.99282 53.3803 9.00003H48.5603V16H53.3803C53.781 16.0105 54.1813 15.9668 54.5703 15.87C54.936 15.7994 55.283 15.6536 55.5894 15.4419C55.8958 15.2301 56.1549 14.9571 56.3503 14.64Z" fill="#231F20"/>
<path d="M71.0698 24.43V22.43C70.5144 23.224 69.7635 23.8612 68.8898 24.28C67.914 24.6948 66.8596 24.8927 65.7998 24.86C64.5503 24.9186 63.3272 24.4881 62.3898 23.66C61.9563 23.2532 61.6157 22.7575 61.3913 22.207C61.167 21.6564 61.0641 21.0639 61.0898 20.47C61.06 19.5864 61.3237 18.7178 61.8398 18C62.3885 17.2855 63.142 16.7552 63.9998 16.48C64.778 16.2053 65.5773 15.9946 66.3898 15.85C67.2298 15.69 68.3098 15.52 69.6198 15.34L70.7598 15.18C70.7664 14.7726 70.688 14.3683 70.5296 13.993C70.3712 13.6176 70.1363 13.2794 69.8398 13C69.2209 12.4879 68.432 12.2273 67.6298 12.27C66.8685 12.2452 66.1148 12.4284 65.4498 12.8C64.8293 13.1654 64.3688 13.7508 64.1598 14.44L61.6198 13.67C62.0256 12.4907 62.805 11.4761 63.8398 10.78C64.9895 10.0337 66.3398 9.65688 67.7098 9.69998C68.9607 9.65358 70.198 9.97332 71.2698 10.62C72.2438 11.2365 72.9559 12.1908 73.2698 13.3C73.4894 14.094 73.5871 14.9167 73.5598 15.74V24.4L71.0698 24.43ZM70.7598 17.49L69.5598 17.67C68.3544 17.8017 67.1609 18.0256 65.9898 18.34C64.5398 18.72 63.8198 19.44 63.8198 20.48C63.8153 20.7657 63.8749 21.0488 63.9943 21.3084C64.1138 21.568 64.2899 21.7975 64.5098 21.98C65.0346 22.3942 65.692 22.6039 66.3598 22.57C67.1685 22.5755 67.9658 22.3797 68.6798 22C69.3412 21.6564 69.882 21.1192 70.2298 20.46C70.6414 19.5266 70.8231 18.5081 70.7598 17.49Z" fill="#231F20"/>
<path d="M82.17 10.27C82.6767 10.1221 83.2021 10.0481 83.73 10.05C84.0651 10.0447 84.4 10.0715 84.73 10.13V12.72C84.3836 12.6319 84.0274 12.5882 83.67 12.59C82.9314 12.5751 82.206 12.7865 81.5911 13.1959C80.9762 13.6052 80.5013 14.1929 80.23 14.88C79.9265 15.733 79.7841 16.6349 79.81 17.54V24.43H77V10.13H79.47V12.46C79.7987 11.8832 80.2492 11.385 80.79 11C81.2034 10.6772 81.6706 10.4301 82.17 10.27Z" fill="#231F20"/>
<path d="M96.0696 24.43V22.43C95.5097 23.2198 94.76 23.856 93.8896 24.28C92.9138 24.6949 91.8595 24.8928 90.7996 24.86C89.5474 24.917 88.3217 24.487 87.3796 23.66C86.9495 23.2511 86.6118 22.7549 86.3893 22.2046C86.1668 21.6544 86.0646 21.063 86.0896 20.47C86.0598 19.5864 86.3235 18.7178 86.8396 18C87.3842 17.2812 88.1392 16.75 88.9996 16.48C89.7748 16.2065 90.5707 15.9959 91.3796 15.85C92.2296 15.69 93.3096 15.52 94.6096 15.34L95.7496 15.18C95.76 14.773 95.6844 14.3685 95.5275 13.9928C95.3707 13.6171 95.1363 13.2788 94.8396 13C94.2197 12.4896 93.4315 12.2293 92.6296 12.27C91.8651 12.2454 91.1083 12.4286 90.4396 12.8C89.8216 13.1659 89.3644 13.7516 89.1596 14.44L86.6196 13.67C87.0254 12.4908 87.8048 11.4761 88.8396 10.78C89.9893 10.0338 91.3397 9.65692 92.7096 9.70002C93.9604 9.65478 95.1974 9.97444 96.2696 10.62C97.2378 11.2427 97.9482 12.1946 98.2696 13.3C98.4892 14.094 98.587 14.9167 98.5596 15.74V24.4L96.0696 24.43ZM95.7496 17.49L94.5596 17.67C93.3542 17.8017 92.1607 18.0257 90.9896 18.34C89.5396 18.72 88.8096 19.44 88.8096 20.48C88.8021 20.7691 88.8603 21.0561 88.9798 21.3194C89.0993 21.5827 89.2771 21.8154 89.4996 22C90.028 22.415 90.6887 22.6246 91.3596 22.59C92.1668 22.5895 92.961 22.3866 93.6696 22C94.3353 21.6624 94.8777 21.1235 95.2196 20.46C95.6362 19.5281 95.8181 18.5084 95.7496 17.49Z" fill="#231F20"/>
<path d="M114.4 10.1301V23.7401C114.403 24.5539 114.339 25.3666 114.21 26.1701C114.097 26.8144 113.853 27.4288 113.493 27.9756C113.134 28.5223 112.667 28.9901 112.12 29.3501C110.849 30.1042 109.387 30.4725 107.91 30.4101C106.75 30.4202 105.606 30.1418 104.58 29.6001C103.592 29.0835 102.778 28.2869 102.24 27.3101L104.78 26.0101C105.048 26.5861 105.503 27.0547 106.07 27.3401C106.637 27.6398 107.269 27.7944 107.91 27.7901C108.414 27.8182 108.918 27.7441 109.393 27.5722C109.867 27.4003 110.302 27.1343 110.67 26.7901C111.261 26.1402 111.595 25.2979 111.61 24.4201V23.4201C110.525 24.3743 109.115 24.8755 107.67 24.8201C106.462 24.8411 105.275 24.4922 104.27 23.8201C103.274 23.1525 102.487 22.2164 102 21.1201C101.457 19.907 101.187 18.5891 101.21 17.2601C101.188 15.9279 101.458 14.6071 102 13.3901C102.487 12.291 103.278 11.3541 104.28 10.6901C105.3 10.0177 106.499 9.66913 107.72 9.69009C108.515 9.66088 109.308 9.79989 110.045 10.098C110.783 10.3961 111.449 10.8467 112 11.4201V10.1301H114.4ZM111 21.0001C111.713 19.9095 112.063 18.6215 112 17.3201C112.068 16.0219 111.737 14.7341 111.05 13.6301C110.726 13.1822 110.294 12.8236 109.794 12.5876C109.294 12.3516 108.742 12.2458 108.19 12.2801C107.612 12.2434 107.034 12.3534 106.509 12.5999C105.985 12.8464 105.531 13.2214 105.19 13.6901C104.476 14.7614 104.126 16.0341 104.19 17.3201C104.131 18.6023 104.481 19.8701 105.19 20.9401C105.541 21.3699 105.981 21.7173 106.481 21.9578C106.98 22.1983 107.527 22.3259 108.081 22.3317C108.636 22.3374 109.185 22.2211 109.689 21.9909C110.194 21.7608 110.641 21.4225 111 21.0001Z" fill="#231F20"/>
<path d="M120.43 23.8701C119.385 23.2274 118.542 22.3017 118 21.2001C117.413 19.9781 117.118 18.6359 117.14 17.2801C117.105 15.8963 117.404 14.5244 118.01 13.2801C118.556 12.1776 119.406 11.2546 120.46 10.6201C121.574 9.97541 122.844 9.65016 124.13 9.68012C125.431 9.6515 126.714 9.98009 127.84 10.6301C128.9 11.2664 129.752 12.1977 130.29 13.3101C130.88 14.5314 131.175 15.8741 131.15 17.2301C131.176 18.5894 130.881 19.9355 130.29 21.1601C129.747 22.2675 128.892 23.1921 127.83 23.8201C126.708 24.4713 125.428 24.8 124.13 24.7701C122.837 24.821 121.556 24.5092 120.43 23.8701ZM127.17 13.6601C126.807 13.2233 126.346 12.8774 125.826 12.6499C125.305 12.4225 124.738 12.3198 124.17 12.3501C123.602 12.3162 123.033 12.4182 122.511 12.6478C121.989 12.8773 121.53 13.2278 121.17 13.6701C120.447 14.7297 120.095 15.9993 120.17 17.2801C120.096 18.5683 120.466 19.843 121.22 20.8901C121.606 21.2994 122.071 21.6254 122.586 21.8483C123.102 22.0712 123.658 22.1862 124.22 22.1862C124.782 22.1862 125.339 22.0712 125.854 21.8483C126.37 21.6254 126.835 21.2994 127.22 20.8901C127.946 19.8427 128.298 18.5818 128.22 17.3101C128.299 16.0091 127.928 14.7206 127.17 13.6601Z" fill="#231F20"/>
<path d="M146.34 13.6899C146.598 14.9393 146.709 16.2147 146.67 17.4899V24.4299H143.86V17.5899C143.879 16.6884 143.784 15.788 143.58 14.9099C143.439 14.2301 143.089 13.6112 142.58 13.1399C142.238 12.8491 141.842 12.6295 141.414 12.4938C140.987 12.3582 140.536 12.3092 140.09 12.3499C139.328 12.375 138.595 12.645 138 13.1199C137.361 13.6578 136.944 14.413 136.83 15.2399C136.731 15.6766 136.677 16.1223 136.67 16.5699C136.67 17.1099 136.67 17.6399 136.67 18.1499V24.4299H133.89V10.1299H136.35V11.8699L136.8 11.3399C137.313 10.7828 137.96 10.3663 138.68 10.1299C139.428 9.86391 140.216 9.7286 141.01 9.72991C142.414 9.68134 143.785 10.1633 144.85 11.0799C145.613 11.768 146.135 12.6828 146.34 13.6899Z" fill="#231F20"/>
</g>
<defs>
<clipPath id="clip0">
<rect width="146.67" height="30.85" fill="white"/>
</clipPath>
</defs>
</svg>
